<mxfile host="app.diagrams.net" modified="2022-10-15T03:20:47.712Z" agent="5.0 (Macintosh; Intel Mac OS X 10_15_7) AppleWebKit/537.36 (KHTML, like Gecko) Chrome/106.0.0.0 Safari/537.36" etag="ambAchf3iA1y2v9O6ydr" version="20.4.0" type="github">
  <diagram id="A6mGiJX77Anee0y3DD2L" name="Page-1">
    <mxGraphModel dx="911" dy="676" grid="1" gridSize="10" guides="1" tooltips="1" connect="1" arrows="1" fold="1" page="1" pageScale="1" pageWidth="5000" pageHeight="5000" math="0" shadow="0">
      <root>
        <mxCell id="0" />
        <mxCell id="1" parent="0" />
        <mxCell id="w7y_vHv0rKMgLHtO9g_5-16" style="edgeStyle=orthogonalEdgeStyle;rounded=0;orthogonalLoop=1;jettySize=auto;html=1;exitX=0.5;exitY=0;exitDx=0;exitDy=0;startArrow=classic;startFill=1;" edge="1" parent="1" source="w7y_vHv0rKMgLHtO9g_5-1" target="w7y_vHv0rKMgLHtO9g_5-15">
          <mxGeometry relative="1" as="geometry" />
        </mxCell>
        <mxCell id="w7y_vHv0rKMgLHtO9g_5-30" style="edgeStyle=orthogonalEdgeStyle;rounded=0;orthogonalLoop=1;jettySize=auto;html=1;exitX=1;exitY=0.5;exitDx=0;exitDy=0;startArrow=classic;startFill=1;" edge="1" parent="1" source="w7y_vHv0rKMgLHtO9g_5-1" target="w7y_vHv0rKMgLHtO9g_5-29">
          <mxGeometry relative="1" as="geometry" />
        </mxCell>
        <mxCell id="w7y_vHv0rKMgLHtO9g_5-1" value="hub-api" style="rounded=1;whiteSpace=wrap;html=1;" vertex="1" parent="1">
          <mxGeometry x="280" y="200" width="120" height="40" as="geometry" />
        </mxCell>
        <mxCell id="w7y_vHv0rKMgLHtO9g_5-11" style="edgeStyle=orthogonalEdgeStyle;rounded=0;orthogonalLoop=1;jettySize=auto;html=1;exitX=0;exitY=0.5;exitDx=0;exitDy=0;startArrow=classic;startFill=1;" edge="1" parent="1" source="w7y_vHv0rKMgLHtO9g_5-4" target="w7y_vHv0rKMgLHtO9g_5-6">
          <mxGeometry relative="1" as="geometry" />
        </mxCell>
        <mxCell id="w7y_vHv0rKMgLHtO9g_5-12" style="edgeStyle=orthogonalEdgeStyle;rounded=0;orthogonalLoop=1;jettySize=auto;html=1;exitX=1;exitY=0.5;exitDx=0;exitDy=0;startArrow=classic;startFill=1;" edge="1" parent="1" source="w7y_vHv0rKMgLHtO9g_5-4" target="w7y_vHv0rKMgLHtO9g_5-7">
          <mxGeometry relative="1" as="geometry" />
        </mxCell>
        <mxCell id="w7y_vHv0rKMgLHtO9g_5-14" style="edgeStyle=orthogonalEdgeStyle;rounded=0;orthogonalLoop=1;jettySize=auto;html=1;exitX=0.5;exitY=0;exitDx=0;exitDy=0;startArrow=classic;startFill=1;" edge="1" parent="1" source="w7y_vHv0rKMgLHtO9g_5-4" target="w7y_vHv0rKMgLHtO9g_5-1">
          <mxGeometry relative="1" as="geometry" />
        </mxCell>
        <mxCell id="w7y_vHv0rKMgLHtO9g_5-28" style="edgeStyle=orthogonalEdgeStyle;rounded=0;orthogonalLoop=1;jettySize=auto;html=1;exitX=0.5;exitY=1;exitDx=0;exitDy=0;startArrow=classic;startFill=1;" edge="1" parent="1" source="w7y_vHv0rKMgLHtO9g_5-4" target="w7y_vHv0rKMgLHtO9g_5-8">
          <mxGeometry relative="1" as="geometry" />
        </mxCell>
        <mxCell id="w7y_vHv0rKMgLHtO9g_5-4" value="site-api" style="rounded=1;whiteSpace=wrap;html=1;" vertex="1" parent="1">
          <mxGeometry x="280" y="320" width="120" height="40" as="geometry" />
        </mxCell>
        <mxCell id="w7y_vHv0rKMgLHtO9g_5-6" value="stats-api" style="rounded=1;whiteSpace=wrap;html=1;" vertex="1" parent="1">
          <mxGeometry x="160" y="400" width="120" height="40" as="geometry" />
        </mxCell>
        <mxCell id="w7y_vHv0rKMgLHtO9g_5-7" value="learning-api" style="rounded=1;whiteSpace=wrap;html=1;" vertex="1" parent="1">
          <mxGeometry x="400" y="400" width="120" height="40" as="geometry" />
        </mxCell>
        <mxCell id="w7y_vHv0rKMgLHtO9g_5-8" value="site-cache-db" style="rounded=1;whiteSpace=wrap;html=1;" vertex="1" parent="1">
          <mxGeometry x="280" y="480" width="120" height="40" as="geometry" />
        </mxCell>
        <mxCell id="w7y_vHv0rKMgLHtO9g_5-18" style="edgeStyle=orthogonalEdgeStyle;rounded=0;orthogonalLoop=1;jettySize=auto;html=1;exitX=0.5;exitY=0;exitDx=0;exitDy=0;startArrow=classic;startFill=1;" edge="1" parent="1" source="w7y_vHv0rKMgLHtO9g_5-15" target="w7y_vHv0rKMgLHtO9g_5-17">
          <mxGeometry relative="1" as="geometry" />
        </mxCell>
        <mxCell id="w7y_vHv0rKMgLHtO9g_5-15" value="dashboard-api" style="rounded=1;whiteSpace=wrap;html=1;" vertex="1" parent="1">
          <mxGeometry x="280" y="120" width="120" height="40" as="geometry" />
        </mxCell>
        <mxCell id="w7y_vHv0rKMgLHtO9g_5-17" value="dashboard-app" style="rounded=1;whiteSpace=wrap;html=1;" vertex="1" parent="1">
          <mxGeometry x="280" y="40" width="120" height="40" as="geometry" />
        </mxCell>
        <mxCell id="w7y_vHv0rKMgLHtO9g_5-21" style="edgeStyle=orthogonalEdgeStyle;rounded=0;orthogonalLoop=1;jettySize=auto;html=1;exitX=0.5;exitY=0;exitDx=0;exitDy=0;entryX=0.5;entryY=1;entryDx=0;entryDy=0;startArrow=classic;startFill=1;" edge="1" parent="1" source="w7y_vHv0rKMgLHtO9g_5-19" target="w7y_vHv0rKMgLHtO9g_5-20">
          <mxGeometry relative="1" as="geometry" />
        </mxCell>
        <mxCell id="w7y_vHv0rKMgLHtO9g_5-22" style="edgeStyle=orthogonalEdgeStyle;rounded=0;orthogonalLoop=1;jettySize=auto;html=1;exitX=1;exitY=0.5;exitDx=0;exitDy=0;entryX=0;entryY=0.5;entryDx=0;entryDy=0;startArrow=classic;startFill=1;" edge="1" parent="1" source="w7y_vHv0rKMgLHtO9g_5-19" target="w7y_vHv0rKMgLHtO9g_5-17">
          <mxGeometry relative="1" as="geometry" />
        </mxCell>
        <mxCell id="w7y_vHv0rKMgLHtO9g_5-24" style="edgeStyle=orthogonalEdgeStyle;rounded=0;orthogonalLoop=1;jettySize=auto;html=1;exitX=1;exitY=0.5;exitDx=0;exitDy=0;entryX=0;entryY=0.5;entryDx=0;entryDy=0;startArrow=classic;startFill=1;" edge="1" parent="1" source="w7y_vHv0rKMgLHtO9g_5-19" target="w7y_vHv0rKMgLHtO9g_5-1">
          <mxGeometry relative="1" as="geometry" />
        </mxCell>
        <mxCell id="w7y_vHv0rKMgLHtO9g_5-25" style="edgeStyle=orthogonalEdgeStyle;rounded=0;orthogonalLoop=1;jettySize=auto;html=1;exitX=1;exitY=0.5;exitDx=0;exitDy=0;startArrow=classic;startFill=1;" edge="1" parent="1" source="w7y_vHv0rKMgLHtO9g_5-19" target="w7y_vHv0rKMgLHtO9g_5-15">
          <mxGeometry relative="1" as="geometry" />
        </mxCell>
        <mxCell id="w7y_vHv0rKMgLHtO9g_5-27" style="edgeStyle=orthogonalEdgeStyle;rounded=0;orthogonalLoop=1;jettySize=auto;html=1;exitX=0.5;exitY=1;exitDx=0;exitDy=0;entryX=0.25;entryY=0;entryDx=0;entryDy=0;startArrow=classic;startFill=1;" edge="1" parent="1" source="w7y_vHv0rKMgLHtO9g_5-19" target="w7y_vHv0rKMgLHtO9g_5-4">
          <mxGeometry relative="1" as="geometry">
            <Array as="points">
              <mxPoint x="140" y="280" />
              <mxPoint x="310" y="280" />
            </Array>
          </mxGeometry>
        </mxCell>
        <mxCell id="w7y_vHv0rKMgLHtO9g_5-19" value="auth-service" style="rounded=1;whiteSpace=wrap;html=1;" vertex="1" parent="1">
          <mxGeometry x="80" y="120" width="120" height="40" as="geometry" />
        </mxCell>
        <mxCell id="w7y_vHv0rKMgLHtO9g_5-20" value="auth-service-db" style="rounded=1;whiteSpace=wrap;html=1;" vertex="1" parent="1">
          <mxGeometry x="80" y="40" width="120" height="40" as="geometry" />
        </mxCell>
        <mxCell id="w7y_vHv0rKMgLHtO9g_5-29" value="hub-cache-db" style="rounded=1;whiteSpace=wrap;html=1;" vertex="1" parent="1">
          <mxGeometry x="440" y="200" width="120" height="40" as="geometry" />
        </mxCell>
      </root>
    </mxGraphModel>
  </diagram>
</mxfile>
